<mxfile host="app.diagrams.net" modified="2023-10-14T19:23:42.769Z" agent="Mozilla/5.0 (Windows NT 10.0; Win64; x64) AppleWebKit/537.36 (KHTML, like Gecko) Chrome/117.0.0.0 Safari/537.36 Edg/117.0.2045.60" version="22.0.4" etag="6OeU-kzQdnIuVkKqKbr1" type="github">
  <diagram name="PÃ¡gina-1" id="jfUUtkn4PBac5maF4hlz">
    <mxGraphModel>
      <root>
        <mxCell id="0" />
        <mxCell id="1" parent="0" />
      </root>
    </mxGraphModel>
  </diagram>
</mxfile>
